<svg width="170" height="31" viewBox="0 0 170 31" fill="none" xmlns="http://www.w3.org/2000/svg">
<path d="M61.5945 23.965V5.47367H64.6721V23.965H61.5945ZM53.06 23.965H49.9824V5.47367H53.06V23.965ZM52.8014 15.7668V13.103H61.8273V15.7668H52.8014Z" fill="#0F0320"/>
<path d="M78.7115 23.965H76.0219V21.3788L75.9184 20.8875V16.0254C75.9184 15.0771 75.634 14.3357 75.065 13.8013C74.496 13.2668 73.7115 12.9995 72.7115 12.9995C71.384 12.9995 70.2029 13.5254 69.1684 14.5771L67.5133 12.7409C69.0477 11.3271 70.8667 10.6202 72.9702 10.6202C74.1253 10.6202 75.134 10.8444 75.996 11.2926C76.8581 11.7237 77.5219 12.3357 77.9874 13.1288C78.4702 13.9219 78.7115 14.8616 78.7115 15.9478V23.965ZM71.8064 24.3788C70.8753 24.3788 70.0564 24.2064 69.3495 23.8616C68.6426 23.4995 68.0909 23.0082 67.6943 22.3875C67.2978 21.7495 67.0995 21.0168 67.0995 20.1892C67.0995 18.8616 67.6167 17.8271 68.6512 17.0857C69.7029 16.3271 71.134 15.9478 72.9443 15.9478H76.1512V17.965H73.1771C72.2115 17.965 71.4615 18.1547 70.9271 18.534C70.3926 18.8961 70.1253 19.4133 70.1253 20.0857C70.1253 20.6892 70.3322 21.1806 70.746 21.5599C71.1771 21.9219 71.746 22.103 72.4529 22.103C73.1426 22.103 73.7546 21.9564 74.2891 21.6633C74.8409 21.353 75.2805 20.9306 75.6081 20.3961C75.9529 19.8616 76.1512 19.2495 76.2029 18.5599L77.0305 18.9995C77.0305 20.0513 76.8064 20.9823 76.3581 21.7926C75.9271 22.603 75.315 23.2409 74.5219 23.7064C73.746 24.1547 72.8409 24.3788 71.8064 24.3788Z" fill="#0F0320"/>
<path d="M93.1074 23.965H90.1074V16.4909C90.1074 15.3875 89.8747 14.5599 89.4091 14.0081C88.9609 13.4392 88.3574 13.1547 87.5988 13.1547C87.0298 13.1547 86.504 13.3185 86.0212 13.6461C85.5385 13.9564 85.1419 14.4564 84.8316 15.1461C84.5212 15.8185 84.366 16.7064 84.366 17.8099V23.965H81.366V11.034H84.3402V15.0168H83.9522C84.0902 13.8788 84.3919 12.9909 84.8574 12.353C85.3402 11.715 85.8919 11.2668 86.5126 11.0081C87.1505 10.7495 87.7798 10.6202 88.4005 10.6202C89.866 10.6202 91.0126 11.0944 91.8402 12.0426C92.685 12.9909 93.1074 14.3702 93.1074 16.1806V23.965Z" fill="#0F0320"/>
<path d="M105.384 23.965V20.784L105.358 20.6547V17.6547C105.358 16.7582 105.203 15.9737 104.892 15.3013C104.599 14.6288 104.185 14.103 103.651 13.7237C103.116 13.3444 102.496 13.1547 101.789 13.1547C101.082 13.1547 100.453 13.3444 99.9009 13.7237C99.3491 14.0857 98.9181 14.5944 98.6078 15.2495C98.3147 15.9047 98.1681 16.6547 98.1681 17.4995C98.1681 18.3444 98.3233 19.0944 98.6336 19.7495C98.944 20.4047 99.375 20.9219 99.9267 21.3013C100.496 21.6633 101.142 21.8444 101.866 21.8444C102.504 21.8444 103.082 21.7064 103.599 21.4306C104.134 21.1375 104.565 20.7409 104.892 20.2409C105.237 19.7409 105.444 19.1633 105.513 18.5082L106.159 18.9737C106.228 19.9909 106.056 20.9133 105.642 21.7409C105.246 22.5513 104.659 23.1978 103.884 23.6806C103.125 24.1461 102.22 24.3788 101.168 24.3788C100.03 24.3788 98.9957 24.0857 98.0647 23.4995C97.1509 22.9133 96.4181 22.103 95.8664 21.0685C95.3319 20.034 95.0647 18.8444 95.0647 17.4995C95.0647 16.1547 95.3319 14.965 95.8664 13.9306C96.4181 12.8961 97.1595 12.0857 98.0905 11.4995C99.0215 10.9133 100.047 10.6202 101.168 10.6202C102.082 10.6202 102.884 10.8099 103.573 11.1892C104.28 11.5685 104.849 12.0857 105.28 12.7409C105.711 13.3961 105.978 14.1547 106.082 15.0168H105.358V5.34436H108.358V23.965H105.384Z" fill="#0F0320"/>
<path d="M109.902 22.0513L111.48 20.1633C112.014 20.7495 112.644 21.215 113.368 21.5599C114.092 21.9047 114.902 22.0771 115.799 22.0771C116.575 22.0771 117.204 21.9219 117.687 21.6116C118.187 21.284 118.437 20.8616 118.437 20.3444C118.437 19.8788 118.221 19.5168 117.79 19.2582C117.376 18.9823 116.635 18.7668 115.566 18.6116C113.756 18.3357 112.454 17.8875 111.661 17.2668C110.868 16.6461 110.471 15.7926 110.471 14.7064C110.471 13.8961 110.695 13.1892 111.144 12.5857C111.592 11.965 112.204 11.4823 112.98 11.1375C113.773 10.7926 114.678 10.6202 115.695 10.6202C116.833 10.6202 117.859 10.8185 118.773 11.215C119.704 11.6116 120.514 12.1892 121.204 12.9478L119.575 14.8357C119.092 14.2323 118.532 13.7668 117.894 13.4392C117.256 13.0944 116.549 12.9219 115.773 12.9219C115.049 12.9219 114.463 13.0685 114.014 13.3616C113.583 13.6547 113.368 14.0426 113.368 14.5254C113.368 14.8013 113.445 15.034 113.6 15.2237C113.756 15.3961 114.032 15.5426 114.428 15.6633C114.825 15.784 115.385 15.9047 116.109 16.0254C118.006 16.3185 119.35 16.7926 120.144 17.4478C120.954 18.0857 121.359 18.9995 121.359 20.1892C121.359 21.0168 121.118 21.7495 120.635 22.3875C120.169 23.0254 119.514 23.5168 118.669 23.8616C117.842 24.2064 116.868 24.3788 115.747 24.3788C114.523 24.3788 113.411 24.1719 112.411 23.7582C111.428 23.3444 110.592 22.7754 109.902 22.0513Z" fill="#0F0320"/>
<path d="M135.061 23.965H132.061V16.4909C132.061 15.4219 131.836 14.603 131.388 14.034C130.94 13.4478 130.328 13.1547 129.552 13.1547C128.604 13.1547 127.828 13.5599 127.224 14.3702C126.621 15.1633 126.319 16.3099 126.319 17.8099V23.965H123.319V5.34436H126.319V15.0168H125.905C126.043 13.965 126.328 13.1202 126.759 12.4823C127.207 11.8271 127.742 11.353 128.362 11.0599C128.983 10.7668 129.647 10.6202 130.354 10.6202C131.819 10.6202 132.966 11.103 133.793 12.0685C134.638 13.0168 135.061 14.3875 135.061 16.1806V23.965Z" fill="#0F0320"/>
<path d="M148.398 23.965H145.708V21.3788L145.605 20.8875V16.0254C145.605 15.0771 145.32 14.3357 144.751 13.8013C144.182 13.2668 143.398 12.9995 142.398 12.9995C141.07 12.9995 139.889 13.5254 138.855 14.5771L137.199 12.7409C138.734 11.3271 140.553 10.6202 142.656 10.6202C143.811 10.6202 144.82 10.8444 145.682 11.2926C146.544 11.7237 147.208 12.3357 147.674 13.1288C148.156 13.9219 148.398 14.8616 148.398 15.9478V23.965ZM141.493 24.3788C140.561 24.3788 139.743 24.2064 139.036 23.8616C138.329 23.4995 137.777 23.0082 137.38 22.3875C136.984 21.7495 136.786 21.0168 136.786 20.1892C136.786 18.8616 137.303 17.8271 138.337 17.0857C139.389 16.3271 140.82 15.9478 142.63 15.9478H145.837V17.965H142.863C141.898 17.965 141.148 18.1547 140.613 18.534C140.079 18.8961 139.811 19.4133 139.811 20.0857C139.811 20.6892 140.018 21.1806 140.432 21.5599C140.863 21.9219 141.432 22.103 142.139 22.103C142.829 22.103 143.441 21.9564 143.975 21.6633C144.527 21.353 144.967 20.9306 145.294 20.3961C145.639 19.8616 145.837 19.2495 145.889 18.5599L146.717 18.9995C146.717 20.0513 146.493 20.9823 146.044 21.7926C145.613 22.603 145.001 23.2409 144.208 23.7064C143.432 24.1547 142.527 24.3788 141.493 24.3788Z" fill="#0F0320"/>
<path d="M154.052 23.965H151.052V11.034H154.052V23.965ZM154.44 6.63746C154.44 7.1547 154.259 7.59436 153.897 7.95643C153.535 8.30125 153.078 8.47367 152.526 8.47367C151.992 8.47367 151.544 8.30125 151.182 7.95643C150.819 7.59436 150.638 7.1547 150.638 6.63746C150.638 6.10298 150.819 5.66332 151.182 5.31849C151.544 4.95643 152 4.77539 152.552 4.77539C153.087 4.77539 153.535 4.95643 153.897 5.31849C154.259 5.66332 154.44 6.10298 154.44 6.63746Z" fill="#0F0320"/>
<path d="M159.887 23.965H156.887V5.34436H159.887V23.965ZM169.637 23.965H165.758L159.189 17.2409H159.448L165.267 11.034H168.913L162.68 17.4995V17.0081L169.637 23.965Z" fill="#0F0320"/>
<path d="M17.3887 0.793945L17.2119 1.10254L16.041 3.1416L15.9824 3.24512H11.7656L4.16992 10.8535L20.0762 26.79L21.7861 25.0781L20.0791 23.9385L19.5127 23.5605H23.3018L24.499 22.3594L22.792 21.2197L22.2266 20.8418H26.0146L27.2129 19.6416L25.5059 18.501L24.9395 18.123H28.7285L29.8789 16.9697L22.8496 9.92773L20.457 12.6699C19.2023 14.1062 17.1007 14.437 15.4668 13.4551L13.166 12.0713L12.9932 11.9678L13.0928 11.792L19.3066 0.897461L19.3662 0.793945H29.4033L29.4639 0.854492L39.2998 10.708L39.4453 10.8545L39.2998 11L34.5107 15.7988L34.3643 15.9443L34.2178 15.7988L32.7793 14.3564L32.6338 14.2109L32.7793 14.0654L35.9834 10.8535L28.3887 3.24512H20.7871L16.3066 11.0996L16.7275 11.3525C17.3453 11.7237 18.1398 11.599 18.6143 11.0557L22.5859 6.50879L22.7305 6.34277L22.8867 6.49902L31.9961 15.623C32.7384 16.367 32.7382 17.5733 31.9961 18.3174L20.2227 30.1113L20.0771 30.2578L19.9307 30.1113L0.853516 11L0.708008 10.8545L0.853516 10.708L10.6904 0.854492L10.751 0.793945H17.3887Z" fill="#0F0320" stroke="#0F0320" stroke-width="0.412709"/>
</svg>
